<svg width="300" height="300" viewBox="0 0 300 300">
    <title>Rapture Game Die</title>
    <desc>The components that make up a single die</desc>
    <symbol id="primary-circle">
        <circle class="circle" cx="150" cy="150" r="70" stroke-width="4" stroke="black" />
    </symbol>

    <symbol id="primary-triangle">
        <polygon points="211.5,256.52112466548596 27,150.00000000000003 211.49999999999991,43.478875334514" fill="white" stroke="black" stroke-width="4"/>
    </symbol>
    <symbol id="primary-square">
        <polygon stroke="black" fill="white" stroke-width="4" points="236.97413408594537,236.97413408594534 63.02586591405466,236.97413408594537 63.025865914054634,63.02586591405466 236.9741340859453,63.025865914054634" />
    </symbol>

    
    <symbol id="dots-five">
        <circle cx="150" cy="106" r="14" fill="black" />
        <circle cx="111" cy="139" r="14" fill="black" />
        <circle cx="189" cy="139" r="14" fill="black" />
        <circle cx="128" cy="189" r="14" fill="black" />
        <circle cx="172" cy="189" r="14" fill="black" />
    </symbol>
    <symbol id="dots-four">
        <circle cx="150" cy="106" r="14" fill="black" />
        <circle cx="111" cy="146" r="14" fill="black" />
        <circle cx="189" cy="146" r="14" fill="black" />
        <circle cx="150" cy="189" r="14" fill="black" />
    </symbol>
    <symbol id="dots-three">
        <circle cx="150" cy="106" r="14" fill="black" />
        <circle cx="111" cy="166" r="14" fill="black" />
        <circle cx="185" cy="174" r="14" fill="black" />
    </symbol>
    <symbol id="dots-two">
        <circle cx="136" cy="115" r="14" fill="black" />
        <circle cx="164" cy="185" r="14" fill="black" />
    </symbol>
    <symbol id="dots-one">
        <circle cx="150" cy="150" r="14" fill="darkgrey" stroke="black" />
    </symbol>
</svg>
